<svg xmlns="http://www.w3.org/2000/svg">
  <!-- TimeTrack icon set. 24x24, stroke-based, colored with currentColor. -->
  <symbol id="clock" viewBox="0 0 24 24" fill="none" stroke="currentColor" stroke-width="2" stroke-linecap="round" stroke-linejoin="round">
    <circle cx="12" cy="12" r="9"/><path d="M12 7v5l3 2"/>
  </symbol>
  <symbol id="home" viewBox="0 0 24 24" fill="none" stroke="currentColor" stroke-width="2" stroke-linecap="round" stroke-linejoin="round">
    <path d="M3 11l9-7 9 7"/><path d="M5 10v10h5v-6h4v6h5V10"/>
  </symbol>
  <symbol id="calendar" viewBox="0 0 24 24" fill="none" stroke="currentColor" stroke-width="2" stroke-linecap="round" stroke-linejoin="round">
    <rect x="3" y="5" width="18" height="16" rx="2"/><path d="M3 10h18M8 3v4M16 3v4"/>
  </symbol>
  <symbol id="chart" viewBox="0 0 24 24" fill="none" stroke="currentColor" stroke-width="2" stroke-linecap="round" stroke-linejoin="round">
    <path d="M4 20h16"/><path d="M7 16v-5M12 16V6M17 16v-8"/>
  </symbol>
  <symbol id="settings" viewBox="0 0 24 24" fill="none" stroke="currentColor" stroke-width="2" stroke-linecap="round" stroke-linejoin="round">
    <path d="M4 6h10M18 6h2M4 12h4M12 12h8M4 18h12M20 18h0"/>
    <circle cx="16" cy="6" r="2"/><circle cx="10" cy="12" r="2"/><circle cx="18" cy="18" r="2"/>
  </symbol>
  <symbol id="logout" viewBox="0 0 24 24" fill="none" stroke="currentColor" stroke-width="2" stroke-linecap="round" stroke-linejoin="round">
    <path d="M10 4H5v16h5"/><path d="M14 8l4 4-4 4M18 12H9"/>
  </symbol>
  <symbol id="note" viewBox="0 0 24 24" fill="none" stroke="currentColor" stroke-width="2" stroke-linecap="round" stroke-linejoin="round">
    <path d="M4 5h16v11H9l-5 4z"/><path d="M8 9h8M8 12h5"/>
  </symbol>
  <symbol id="check" viewBox="0 0 24 24" fill="none" stroke="currentColor" stroke-width="2.5" stroke-linecap="round" stroke-linejoin="round">
    <path d="M5 12l5 5 9-10"/>
  </symbol>
  <symbol id="alert" viewBox="0 0 24 24" fill="none" stroke="currentColor" stroke-width="2" stroke-linecap="round" stroke-linejoin="round">
    <path d="M12 3l10 18H2z"/><path d="M12 10v4M12 17.5v.01"/>
  </symbol>
  <symbol id="eye" viewBox="0 0 24 24" fill="none" stroke="currentColor" stroke-width="2" stroke-linecap="round" stroke-linejoin="round">
    <path d="M2 12s4-7 10-7 10 7 10 7-4 7-10 7S2 12 2 12z"/><circle cx="12" cy="12" r="3"/>
  </symbol>
  <symbol id="pencil" viewBox="0 0 24 24" fill="none" stroke="currentColor" stroke-width="2" stroke-linecap="round" stroke-linejoin="round">
    <path d="M4 20l1-5L16 4l4 4L9 19z"/><path d="M13 7l4 4"/>
  </symbol>
  <symbol id="plus" viewBox="0 0 24 24" fill="none" stroke="currentColor" stroke-width="2" stroke-linecap="round" stroke-linejoin="round">
    <path d="M12 5v14M5 12h14"/>
  </symbol>
  <symbol id="save" viewBox="0 0 24 24" fill="none" stroke="currentColor" stroke-width="2" stroke-linecap="round" stroke-linejoin="round">
    <path d="M5 4h11l3 3v13H5z"/><path d="M8 4v5h7V4M8 20v-6h8v6"/>
  </symbol>
  <symbol id="trash" viewBox="0 0 24 24" fill="none" stroke="currentColor" stroke-width="2" stroke-linecap="round" stroke-linejoin="round">
    <path d="M4 7h16M9 7V4h6v3M6 7l1 13h10l1-13"/><path d="M10 11v6M14 11v6"/>
  </symbol>
  <symbol id="upload" viewBox="0 0 24 24" fill="none" stroke="currentColor" stroke-width="2" stroke-linecap="round" stroke-linejoin="round">
    <path d="M12 16V4M7 9l5-5 5 5"/><path d="M4 16v4h16v-4"/>
  </symbol>
  <symbol id="download" viewBox="0 0 24 24" fill="none" stroke="currentColor" stroke-width="2" stroke-linecap="round" stroke-linejoin="round">
    <path d="M12 4v12M7 11l5 5 5-5"/><path d="M4 16v4h16v-4"/>
  </symbol>
  <symbol id="x" viewBox="0 0 24 24" fill="none" stroke="currentColor" stroke-width="2" stroke-linecap="round" stroke-linejoin="round">
    <path d="M6 6l12 12M18 6L6 18"/>
  </symbol>
  <symbol id="chevron-left" viewBox="0 0 24 24" fill="none" stroke="currentColor" stroke-width="2" stroke-linecap="round" stroke-linejoin="round">
    <path d="M15 5l-7 7 7 7"/>
  </symbol>
  <symbol id="chevron-right" viewBox="0 0 24 24" fill="none" stroke="currentColor" stroke-width="2" stroke-linecap="round" stroke-linejoin="round">
    <path d="M9 5l7 7-7 7"/>
  </symbol>
  <symbol id="sun" viewBox="0 0 24 24" fill="none" stroke="currentColor" stroke-width="2" stroke-linecap="round" stroke-linejoin="round">
    <circle cx="12" cy="12" r="4"/><path d="M12 2v2M12 20v2M2 12h2M20 12h2M4.9 4.9l1.4 1.4M17.7 17.7l1.4 1.4M4.9 19.1l1.4-1.4M17.7 6.3l1.4-1.4"/>
  </symbol>
  <symbol id="moon" viewBox="0 0 24 24" fill="none" stroke="currentColor" stroke-width="2" stroke-linecap="round" stroke-linejoin="round">
    <path d="M20 14.5A8 8 0 1 1 9.5 4a6.5 6.5 0 0 0 10.5 10.5z"/>
  </symbol>
</svg>
